  0
SECTION
  2
HEADER
  9
$ACADVER
  1
AC1014
  9
$HANDSEED
  5
FFFF
  9
$MEASUREMENT
 70
     1
  0
ENDSEC
  0
SECTION
  2
TABLES
  0
TABLE
  2
VPORT
  5
8
330
0
100
AcDbSymbolTable
 70
     4
  0
VPORT
  5
2E
330
8
100
AcDbSymbolTableRecord
100
AcDbViewportTableRecord
  2
*ACTIVE
 70
     0
 10
0.0
 20
0.0
 11
1.0
 21
1.0
 12
210.0
 22
148.5
 13
0.0
 23
0.0
 14
10.0
 24
10.0
 15
10.0
 25
10.0
 16
0.0
 26
0.0
 36
1.0
 17
0.0
 27
0.0
 37
0.0
 40
341.0
 41
1.24
 42
50.0
 43
0.0
 44
0.0
 50
0.0
 51
0.0
 71
     0
 72
   100
 73
     1
 74
     3
 75
     0
 76
     0
 77
     0
 78
     0
  0
ENDTAB
  0
TABLE
  2
LTYPE
  5
5
330
0
100
AcDbSymbolTable
 70
     1
  0
LTYPE
  5
14
330
5
100
AcDbSymbolTableRecord
100
AcDbLinetypeTableRecord
  2
BYBLOCK
 70
     0
  3

 72
    65
 73
     0
 40
0.0
  0
LTYPE
  5
15
330
5
100
AcDbSymbolTableRecord
100
AcDbLinetypeTableRecord
  2
BYLAYER
 70
     0
  3

 72
    65
 73
     0
 40
0.0
  0
LTYPE
  5
16
330
5
100
AcDbSymbolTableRecord
100
AcDbLinetypeTableRecord
  2
CONTINUOUS
 70
     0
  3
Solid line
 72
    65
 73
     0
 40
0.0
  0
ENDTAB
  0
TABLE
  2
LAYER
  5
2
100
AcDbSymbolTable
 70
2
  0
LAYER
  5
50
100
AcDbSymbolTableRecord
100
AcDbLayerTableRecord
  2
0
 70
0
  6
CONTINUOUS
  0
LAYER
  5
51
100
AcDbSymbolTableRecord
100
AcDbLayerTableRecord
  2
Layer_1
 70
0
  6
CONTINUOUS
  0
ENDTAB
  0
TABLE
  2
STYLE
  5
3
330
0
100
AcDbSymbolTable
 70
     1
  0
STYLE
  5
11
330
3
100
AcDbSymbolTableRecord
100
AcDbTextStyleTableRecord
  2
STANDARD
 70
     0
 40
0.0
 41
1.0
 50
0.0
 71
     0
 42
2.5
  3
txt
  4

  0
ENDTAB
  0
TABLE
  2
VIEW
  5
6
330
0
100
AcDbSymbolTable
 70
     0
  0
ENDTAB
  0
TABLE
  2
UCS
  5
7
330
0
100
AcDbSymbolTable
 70
     0
  0
ENDTAB
  0
TABLE
  2
APPID
  5
9
330
0
100
AcDbSymbolTable
 70
     2
  0
APPID
  5
12
330
9
100
AcDbSymbolTableRecord
100
AcDbRegAppTableRecord
  2
ACAD
 70
     0
  0
ENDTAB
  0
TABLE
  2
DIMSTYLE
  5
A
330
0
100
AcDbSymbolTable
 70
     1
  0
DIMSTYLE
105
27
330
A
100
AcDbSymbolTableRecord
100
AcDbDimStyleTableRecord
  2
ISO-25
 70
     0
  3

  4

  5

  6

  7

 40
1.0
 41
2.5
 42
0.625
 43
3.75
 44
1.25
 45
0.0
 46
0.0
 47
0.0
 48
0.0
140
2.5
141
2.5
142
0.0
143
0.03937007874016
144
1.0
145
0.0
146
1.0
147
0.625
 71
     0
 72
     0
 73
     0
 74
     0
 75
     0
 76
     0
 77
     1
 78
     8
170
     0
171
     3
172
     1
173
     0
174
     0
175
     0
176
     0
177
     0
178
     0
270
     2
271
     2
272
     2
273
     2
274
     3
340
11
275
     0
280
     0
281
     0
282
     0
283
     0
284
     8
285
     0
286
     0
287
     3
288
     0
  0
ENDTAB
  0
TABLE
  2
BLOCK_RECORD
  5
1
330
0
100
AcDbSymbolTable
 70
     1
  0
BLOCK_RECORD
  5
1F
330
1
100
AcDbSymbolTableRecord
100
AcDbBlockTableRecord
  2
*MODEL_SPACE
  0
BLOCK_RECORD
  5
1B
330
1
100
AcDbSymbolTableRecord
100
AcDbBlockTableRecord
  2
*PAPER_SPACE
  0
ENDTAB
  0
ENDSEC
  0
SECTION
  2
BLOCKS
  0
BLOCK
  5
20
330
1F
100
AcDbEntity
  8
0
100
AcDbBlockBegin
  2
*MODEL_SPACE
 70
     0
 10
0.0
 20
0.0
 30
0.0
  3
*MODEL_SPACE
  1

  0
ENDBLK
  5
21
330
1F
100
AcDbEntity
  8
0
100
AcDbBlockEnd
  0
BLOCK
  5
1C
330
1B
100
AcDbEntity
 67
     1
  8
0
100
AcDbBlockBegin
  2
*PAPER_SPACE
  1

  0
ENDBLK
  5
1D
330
1B
100
AcDbEntity
 67
     1
  8
0
100
AcDbBlockEnd
  0
ENDSEC
  0
SECTION
  2
ENTITIES
  0
LWPOLYLINE
  5
100
100
AcDbEntity
  8
Layer_1
 62
7
100
AcDbPolyline
 90
4
 70
1
 10
27.970238
 20
111.125000
 30
0.0
 10
27.970238
 20
117.369170
 30
0.0
 10
28.605238
 20
117.369170
 30
0.0
 10
28.605238
 20
111.125000
 30
0.0
  0
LWPOLYLINE
  5
101
100
AcDbEntity
  8
Layer_1
 62
7
100
AcDbPolyline
 90
4
 70
1
 10
29.240238
 20
111.125000
 30
0.0
 10
29.240238
 20
117.369170
 30
0.0
 10
29.557738
 20
117.369170
 30
0.0
 10
29.557738
 20
111.125000
 30
0.0
  0
LWPOLYLINE
  5
102
100
AcDbEntity
  8
Layer_1
 62
7
100
AcDbPolyline
 90
4
 70
1
 10
29.875238
 20
111.125000
 30
0.0
 10
29.875238
 20
117.369170
 30
0.0
 10
30.192738
 20
117.369170
 30
0.0
 10
30.192738
 20
111.125000
 30
0.0
  0
LWPOLYLINE
  5
103
100
AcDbEntity
  8
Layer_1
 62
7
100
AcDbPolyline
 90
10
 70
1
 10
29.039154
 20
107.981750
 30
0.0
 10
29.578904
 20
107.981750
 30
0.0
 10
29.578904
 20
110.140750
 30
0.0
 10
29.070904
 20
110.140750
 30
0.0
 10
29.070904
 20
110.363000
 30
0.0
 10
29.864654
 20
110.363000
 30
0.0
 10
29.864654
 20
107.981750
 30
0.0
 10
30.393821
 20
107.981750
 30
0.0
 10
30.393821
 20
107.748920
 30
0.0
 10
29.039154
 20
107.748920
 30
0.0
  0
LWPOLYLINE
  5
104
100
AcDbEntity
  8
Layer_1
 62
7
100
AcDbPolyline
 90
4
 70
1
 10
31.463564
 20
111.125000
 30
0.0
 10
31.463564
 20
117.369170
 30
0.0
 10
31.781064
 20
117.369170
 30
0.0
 10
31.781064
 20
111.125000
 30
0.0
  0
LWPOLYLINE
  5
105
100
AcDbEntity
  8
Layer_1
 62
7
100
AcDbPolyline
 90
4
 70
1
 10
32.733564
 20
111.125000
 30
0.0
 10
32.733564
 20
117.369170
 30
0.0
 10
34.003564
 20
117.369170
 30
0.0
 10
34.003564
 20
111.125000
 30
0.0
  0
LWPOLYLINE
  5
106
100
AcDbEntity
  8
Layer_1
 62
7
100
AcDbPolyline
 90
4
 70
1
 10
34.321064
 20
111.125000
 30
0.0
 10
34.321064
 20
117.369170
 30
0.0
 10
34.638564
 20
117.369170
 30
0.0
 10
34.638564
 20
111.125000
 30
0.0
  0
LWPOLYLINE
  5
107
100
AcDbEntity
  8
Layer_1
 62
7
100
AcDbPolyline
 90
13
 70
1
 10
33.209814
 20
107.717170
 30
0.0
 10
32.775898
 20
107.833580
 30
0.0
 10
32.490148
 20
108.161670
 30
0.0
 10
32.373731
 20
108.648500
 30
0.0
 10
32.490148
 20
109.135330
 30
0.0
 10
32.775898
 20
109.463420
 30
0.0
 10
33.209814
 20
109.590420
 30
0.0
 10
33.633148
 20
109.463420
 30
0.0
 10
33.929481
 20
109.135330
 30
0.0
 10
34.035314
 20
108.648500
 30
0.0
 10
33.929481
 20
108.161670
 30
0.0
 10
33.633148
 20
107.833580
 30
0.0
 10
33.209814
 20
107.717170
 30
0.0
  0
LWPOLYLINE
  5
108
100
AcDbEntity
  8
Layer_1
 62
7
100
AcDbPolyline
 90
11
 70
1
 10
33.209814
 20
107.950000
 30
0.0
 10
33.484981
 20
108.045300
 30
0.0
 10
33.675481
 20
108.288720
 30
0.0
 10
33.738981
 20
108.659130
 30
0.0
 10
33.590814
 20
109.156550
 30
0.0
 10
33.209814
 20
109.347050
 30
0.0
 10
32.828814
 20
109.156550
 30
0.0
 10
32.680648
 20
108.659130
 30
0.0
 10
32.744148
 20
108.288720
 30
0.0
 10
32.934648
 20
108.045300
 30
0.0
 10
33.209814
 20
107.950000
 30
0.0
  0
LWPOLYLINE
  5
109
100
AcDbEntity
  8
Layer_1
 62
7
100
AcDbPolyline
 90
4
 70
1
 10
34.956891
 20
111.125000
 30
0.0
 10
34.956891
 20
117.369170
 30
0.0
 10
35.274391
 20
117.369170
 30
0.0
 10
35.274391
 20
111.125000
 30
0.0
  0
LWPOLYLINE
  5
10a
100
AcDbEntity
  8
Layer_1
 62
7
100
AcDbPolyline
 90
4
 70
1
 10
35.591891
 20
111.125000
 30
0.0
 10
35.591891
 20
117.369170
 30
0.0
 10
35.909391
 20
117.369170
 30
0.0
 10
35.909391
 20
111.125000
 30
0.0
  0
LWPOLYLINE
  5
10b
100
AcDbEntity
  8
Layer_1
 62
7
100
AcDbPolyline
 90
4
 70
1
 10
36.544391
 20
111.125000
 30
0.0
 10
36.544391
 20
117.369170
 30
0.0
 10
37.814391
 20
117.369170
 30
0.0
 10
37.814391
 20
111.125000
 30
0.0
  0
LWPOLYLINE
  5
10c
100
AcDbEntity
  8
Layer_1
 62
7
100
AcDbPolyline
 90
15
 70
1
 10
35.951724
 20
109.548080
 30
0.0
 10
36.237474
 20
109.548080
 30
0.0
 10
36.237474
 20
109.188250
 30
0.0
 10
36.449141
 20
109.484580
 30
0.0
 10
36.787808
 20
109.590420
 30
0.0
 10
37.168808
 20
109.484580
 30
0.0
 10
37.433391
 20
109.167080
 30
0.0
 10
37.539224
 20
108.659080
 30
0.0
 10
37.433391
 20
108.140500
 30
0.0
 10
37.158224
 20
107.812420
 30
0.0
 10
36.777224
 20
107.706580
 30
0.0
 10
36.480891
 20
107.780680
 30
0.0
 10
36.248058
 20
107.981760
 30
0.0
 10
36.248058
 20
107.092760
 30
0.0
 10
35.951724
 20
107.092760
 30
0.0
  0
LWPOLYLINE
  5
10d
100
AcDbEntity
  8
Layer_1
 62
7
100
AcDbPolyline
 90
9
 70
1
 10
36.734891
 20
107.950000
 30
0.0
 10
37.094724
 20
108.119330
 30
0.0
 10
37.242891
 20
108.648500
 30
0.0
 10
37.115891
 20
109.167080
 30
0.0
 10
36.745474
 20
109.347000
 30
0.0
 10
36.385641
 20
109.156500
 30
0.0
 10
36.237474
 20
108.585000
 30
0.0
 10
36.375058
 20
108.119330
 30
0.0
 10
36.734891
 20
107.950000
 30
0.0
  0
LWPOLYLINE
  5
10e
100
AcDbEntity
  8
Layer_1
 62
7
100
AcDbPolyline
 90
4
 70
1
 10
38.450218
 20
111.125000
 30
0.0
 10
38.450218
 20
117.369170
 30
0.0
 10
38.767718
 20
117.369170
 30
0.0
 10
38.767718
 20
111.125000
 30
0.0
  0
LWPOLYLINE
  5
10f
100
AcDbEntity
  8
Layer_1
 62
7
100
AcDbPolyline
 90
4
 70
1
 10
39.402718
 20
111.125000
 30
0.0
 10
39.402718
 20
117.369170
 30
0.0
 10
40.037718
 20
117.369170
 30
0.0
 10
40.037718
 20
111.125000
 30
0.0
  0
LWPOLYLINE
  5
110
100
AcDbEntity
  8
Layer_1
 62
7
100
AcDbPolyline
 90
4
 70
1
 10
41.307718
 20
111.125000
 30
0.0
 10
41.307718
 20
117.369170
 30
0.0
 10
41.625218
 20
117.369170
 30
0.0
 10
41.625218
 20
111.125000
 30
0.0
  0
LWPOLYLINE
  5
111
100
AcDbEntity
  8
Layer_1
 62
7
100
AcDbPolyline
 90
20
 70
1
 10
39.497968
 20
110.363000
 30
0.0
 10
39.815468
 20
110.363000
 30
0.0
 10
39.815468
 20
110.341800
 30
0.0
 10
39.783718
 20
110.288900
 30
0.0
 10
39.773138
 20
110.193700
 30
0.0
 10
39.773138
 20
109.230610
 30
0.0
 10
40.037721
 20
109.495200
 30
0.0
 10
40.365804
 20
109.590400
 30
0.0
 10
40.767971
 20
109.410480
 30
0.0
 10
40.916138
 20
108.838980
 30
0.0
 10
40.916138
 20
107.748900
 30
0.0
 10
40.640971
 20
107.748900
 30
0.0
 10
40.640971
 20
108.828400
 30
0.0
 10
40.545721
 20
109.219980
 30
0.0
 10
40.302304
 20
109.346980
 30
0.0
 10
40.058888
 20
109.272880
 30
0.0
 10
39.857804
 20
109.071790
 30
0.0
 10
39.773134
 20
108.786040
 30
0.0
 10
39.773134
 20
107.748880
 30
0.0
 10
39.497967
 20
107.748880
 30
0.0
  0
LWPOLYLINE
  5
112
100
AcDbEntity
  8
Layer_1
 62
7
100
AcDbPolyline
 90
4
 70
1
 10
41.943544
 20
111.125000
 30
0.0
 10
41.943544
 20
117.369170
 30
0.0
 10
42.261044
 20
117.369170
 30
0.0
 10
42.261044
 20
111.125000
 30
0.0
  0
LWPOLYLINE
  5
113
100
AcDbEntity
  8
Layer_1
 62
7
100
AcDbPolyline
 90
4
 70
1
 10
42.896044
 20
111.125000
 30
0.0
 10
42.896044
 20
117.369170
 30
0.0
 10
44.166044
 20
117.369170
 30
0.0
 10
44.166044
 20
111.125000
 30
0.0
  0
LWPOLYLINE
  5
114
100
AcDbEntity
  8
Layer_1
 62
7
100
AcDbPolyline
 90
4
 70
1
 10
44.483544
 20
111.125000
 30
0.0
 10
44.483544
 20
117.369170
 30
0.0
 10
44.801044
 20
117.369170
 30
0.0
 10
44.801044
 20
111.125000
 30
0.0
  0
LWPOLYLINE
  5
115
100
AcDbEntity
  8
Layer_1
 62
7
100
AcDbPolyline
 90
25
 70
1
 10
44.451794
 20
107.918250
 30
0.0
 10
43.880294
 20
107.717170
 30
0.0
 10
43.456961
 20
107.897080
 30
0.0
 10
43.329961
 20
108.489750
 30
0.0
 10
43.340541
 20
108.722580
 30
0.0
 10
43.382871
 20
109.315250
 30
0.0
 10
42.980704
 20
109.315250
 30
0.0
 10
42.980704
 20
109.548080
 30
0.0
 10
43.393454
 20
109.548080
 30
0.0
 10
43.425204
 20
110.024330
 30
0.0
 10
43.732121
 20
110.077230
 30
0.0
 10
43.774451
 20
110.077230
 30
0.0
 10
43.774451
 20
110.056030
 30
0.0
 10
43.742701
 20
109.992530
 30
0.0
 10
43.721531
 20
109.907830
 30
0.0
 10
43.679201
 20
109.547990
 30
0.0
 10
44.271868
 20
109.547990
 30
0.0
 10
44.271868
 20
109.315160
 30
0.0
 10
43.658034
 20
109.315160
 30
0.0
 10
43.626284
 20
108.701330
 30
0.0
 10
43.615704
 20
108.500240
 30
0.0
 10
43.689784
 20
108.066330
 30
0.0
 10
43.922618
 20
107.960490
 30
0.0
 10
44.144868
 20
108.002790
 30
0.0
 10
44.367118
 20
108.140370
 30
0.0
  0
LWPOLYLINE
  5
116
100
AcDbEntity
  8
Layer_1
 62
7
100
AcDbPolyline
 90
4
 70
1
 10
45.436871
 20
111.125000
 30
0.0
 10
45.436871
 20
117.369170
 30
0.0
 10
46.706871
 20
117.369170
 30
0.0
 10
46.706871
 20
111.125000
 30
0.0
  0
LWPOLYLINE
  5
117
100
AcDbEntity
  8
Layer_1
 62
7
100
AcDbPolyline
 90
4
 70
1
 10
47.341871
 20
111.125000
 30
0.0
 10
47.341871
 20
117.369170
 30
0.0
 10
47.659371
 20
117.369170
 30
0.0
 10
47.659371
 20
111.125000
 30
0.0
  0
LWPOLYLINE
  5
118
100
AcDbEntity
  8
Layer_1
 62
7
100
AcDbPolyline
 90
4
 70
1
 10
47.976870
 20
111.125000
 30
0.0
 10
47.976870
 20
117.369170
 30
0.0
 10
48.294370
 20
117.369170
 30
0.0
 10
48.294370
 20
111.125000
 30
0.0
  0
LWPOLYLINE
  5
119
100
AcDbEntity
  8
Layer_1
 62
7
100
AcDbPolyline
 90
15
 70
1
 10
46.262371
 20
109.548080
 30
0.0
 10
46.505787
 20
109.548080
 30
0.0
 10
46.802121
 20
108.098170
 30
0.0
 10
47.109037
 20
109.378750
 30
0.0
 10
47.278371
 20
109.378750
 30
0.0
 10
47.659371
 20
108.108750
 30
0.0
 10
47.796954
 20
109.071830
 30
0.0
 10
47.828704
 20
109.484580
 30
0.0
 10
47.828704
 20
109.548080
 30
0.0
 10
48.093287
 20
109.548080
 30
0.0
 10
47.796954
 20
107.748920
 30
0.0
 10
47.521787
 20
107.748920
 30
0.0
 10
47.193704
 20
108.913080
 30
0.0
 10
46.876204
 20
107.748920
 30
0.0
 10
46.622204
 20
107.748920
 30
0.0
  0
LWPOLYLINE
  5
11a
100
AcDbEntity
  8
Layer_1
 62
7
100
AcDbPolyline
 90
4
 70
1
 10
48.930199
 20
111.125000
 30
0.0
 10
48.930199
 20
117.369170
 30
0.0
 10
49.247699
 20
117.369170
 30
0.0
 10
49.247699
 20
111.125000
 30
0.0
  0
LWPOLYLINE
  5
11b
100
AcDbEntity
  8
Layer_1
 62
7
100
AcDbPolyline
 90
4
 70
1
 10
49.882699
 20
111.125000
 30
0.0
 10
49.882699
 20
117.369170
 30
0.0
 10
50.200199
 20
117.369170
 30
0.0
 10
50.200199
 20
111.125000
 30
0.0
  0
LWPOLYLINE
  5
11c
100
AcDbEntity
  8
Layer_1
 62
7
100
AcDbPolyline
 90
4
 70
1
 10
50.517699
 20
111.125000
 30
0.0
 10
50.517699
 20
117.369170
 30
0.0
 10
51.152699
 20
117.369170
 30
0.0
 10
51.152699
 20
111.125000
 30
0.0
  0
LWPOLYLINE
  5
11d
100
AcDbEntity
  8
Layer_1
 62
7
100
AcDbPolyline
 90
20
 70
1
 10
50.655282
 20
109.590420
 30
0.0
 10
51.237365
 20
109.389330
 30
0.0
 10
51.438449
 20
108.701420
 30
0.0
 10
51.438449
 20
107.748920
 30
0.0
 10
51.131532
 20
107.748920
 30
0.0
 10
51.131532
 20
108.024080
 30
0.0
 10
50.898699
 20
107.785960
 30
0.0
 10
50.517699
 20
107.706560
 30
0.0
 10
50.052032
 20
107.844150
 30
0.0
 10
49.882699
 20
108.203980
 30
0.0
 10
50.009699
 20
108.532060
 30
0.0
 10
50.337782
 20
108.754310
 30
0.0
 10
50.792865
 20
108.828410
 30
0.0
 10
51.195032
 20
108.807210
 30
0.0
 10
51.036282
 20
109.230540
 30
0.0
 10
50.634115
 20
109.357540
 30
0.0
 10
50.380115
 20
109.304640
 30
0.0
 10
50.147282
 20
109.156470
 30
0.0
 10
50.009699
 20
109.336390
 30
0.0
 10
50.655282
 20
109.590390
 30
0.0
  0
LWPOLYLINE
  5
11e
100
AcDbEntity
  8
Layer_1
 62
7
100
AcDbPolyline
 90
8
 70
1
 10
50.549449
 20
107.918230
 30
0.0
 10
51.015115
 20
108.098150
 30
0.0
 10
51.195032
 20
108.584980
 30
0.0
 10
50.814032
 20
108.616680
 30
0.0
 10
50.337782
 20
108.510850
 30
0.0
 10
50.168449
 20
108.214510
 30
0.0
 10
50.263699
 20
107.992260
 30
0.0
 10
50.549449
 20
107.918160
 30
0.0
  0
LWPOLYLINE
  5
11f
100
AcDbEntity
  8
Layer_1
 62
7
100
AcDbPolyline
 90
4
 70
1
 10
52.423525
 20
111.125000
 30
0.0
 10
52.423525
 20
117.369170
 30
0.0
 10
52.741025
 20
117.369170
 30
0.0
 10
52.741025
 20
111.125000
 30
0.0
  0
LWPOLYLINE
  5
120
100
AcDbEntity
  8
Layer_1
 62
7
100
AcDbPolyline
 90
4
 70
1
 10
53.376025
 20
111.125000
 30
0.0
 10
53.376025
 20
117.369170
 30
0.0
 10
53.693525
 20
117.369170
 30
0.0
 10
53.693525
 20
111.125000
 30
0.0
  0
LWPOLYLINE
  5
121
100
AcDbEntity
  8
Layer_1
 62
7
100
AcDbPolyline
 90
4
 70
1
 10
54.328525
 20
111.125000
 30
0.0
 10
54.328525
 20
117.369170
 30
0.0
 10
55.598525
 20
117.369170
 30
0.0
 10
55.598525
 20
111.125000
 30
0.0
  0
LWPOLYLINE
  5
122
100
AcDbEntity
  8
Layer_1
 62
7
100
AcDbPolyline
 90
18
 70
1
 10
54.508441
 20
109.590420
 30
0.0
 10
54.984691
 20
109.389330
 30
0.0
 10
54.857691
 20
109.177670
 30
0.0
 10
54.847111
 20
109.135370
 30
0.0
 10
54.815361
 20
109.156570
 30
0.0
 10
54.794191
 20
109.220070
 30
0.0
 10
54.720111
 20
109.283570
 30
0.0
 10
54.487278
 20
109.347070
 30
0.0
 10
54.222694
 20
109.272970
 30
0.0
 10
54.021611
 20
109.061300
 30
0.0
 10
53.936941
 20
108.701470
 30
0.0
 10
53.936941
 20
107.748970
 30
0.0
 10
53.651191
 20
107.748970
 30
0.0
 10
53.651191
 20
109.548130
 30
0.0
 10
53.947525
 20
109.548130
 30
0.0
 10
53.936945
 20
109.220050
 30
0.0
 10
54.169779
 20
109.495220
 30
0.0
 10
54.508445
 20
109.590420
 30
0.0
  0
LWPOLYLINE
  5
123
100
AcDbEntity
  8
Layer_1
 62
7
100
AcDbPolyline
 90
4
 70
1
 10
55.916851
 20
111.125000
 30
0.0
 10
55.916851
 20
117.369170
 30
0.0
 10
56.234351
 20
117.369170
 30
0.0
 10
56.234351
 20
111.125000
 30
0.0
  0
LWPOLYLINE
  5
124
100
AcDbEntity
  8
Layer_1
 62
7
100
AcDbPolyline
 90
4
 70
1
 10
56.551851
 20
111.125000
 30
0.0
 10
56.551851
 20
117.369170
 30
0.0
 10
57.186851
 20
117.369170
 30
0.0
 10
57.186851
 20
111.125000
 30
0.0
  0
LWPOLYLINE
  5
125
100
AcDbEntity
  8
Layer_1
 62
7
100
AcDbPolyline
 90
4
 70
1
 10
57.821851
 20
111.125000
 30
0.0
 10
57.821851
 20
117.369170
 30
0.0
 10
58.139351
 20
117.369170
 30
0.0
 10
58.139351
 20
111.125000
 30
0.0
  0
LWPOLYLINE
  5
126
100
AcDbEntity
  8
Layer_1
 62
7
100
AcDbPolyline
 90
16
 70
1
 10
57.747771
 20
107.706580
 30
0.0
 10
57.112771
 20
107.950000
 30
0.0
 10
56.869354
 20
108.637920
 30
0.0
 10
56.985771
 20
109.156500
 30
0.0
 10
57.282104
 20
109.474000
 30
0.0
 10
57.694854
 20
109.590420
 30
0.0
 10
58.224021
 20
109.378750
 30
0.0
 10
58.425104
 20
108.733170
 30
0.0
 10
58.425104
 20
108.606170
 30
0.0
 10
57.144521
 20
108.606170
 30
0.0
 10
57.324437
 20
108.108750
 30
0.0
 10
57.758354
 20
107.939420
 30
0.0
 10
58.224021
 20
108.140500
 30
0.0
 10
58.382771
 20
107.981750
 30
0.0
 10
58.107604
 20
107.775370
 30
0.0
 10
57.747771
 20
107.706570
 30
0.0
  0
LWPOLYLINE
  5
127
100
AcDbEntity
  8
Layer_1
 62
7
100
AcDbPolyline
 90
5
 70
1
 10
58.139354
 20
108.828410
 30
0.0
 10
58.012354
 20
109.230570
 30
0.0
 10
57.673687
 20
109.378740
 30
0.0
 10
57.335021
 20
109.241160
 30
0.0
 10
57.155104
 20
108.828410
 30
0.0
  0
ENDSEC
  0
SECTION
  2
OBJECTS
  0
DICTIONARY
  5
C
330
0
100
AcDbDictionary
  3
ACAD_GROUP
350
D
  3
ACAD_MLINESTYLE
350
17
  0
DICTIONARY
  5
D
330
C
100
AcDbDictionary
  0
DICTIONARY
  5
1A
330
C
100
AcDbDictionary
  0
DICTIONARY
  5
17
330
C
100
AcDbDictionary
  3
STANDARD
350
18
  0
DICTIONARY
  5
19
330
C
100
AcDbDictionary
  0
ENDSEC
  0
EOF
